<mxfile host="app.diagrams.net" modified="2021-02-25T15:36:34.062Z" agent="5.0 (Windows)" etag="m5Vd5BjkzYegMzIGYXjx" version="14.3.2" type="github">
  <diagram id="l1dfnoeB7ZRTdDHKzJY4" name="Page-1">
    <mxGraphModel dx="1422" dy="763" grid="1" gridSize="10" guides="1" tooltips="1" connect="1" arrows="1" fold="1" page="1" pageScale="1" pageWidth="827" pageHeight="1169" math="0" shadow="0">
      <root>
        <mxCell id="0" />
        <mxCell id="1" parent="0" />
        <mxCell id="7_QUcczijEH4QWhwg0ys-2" value="" style="shape=process;whiteSpace=wrap;html=1;backgroundOutline=1;" vertex="1" parent="1">
          <mxGeometry x="235" y="290" width="180" height="60" as="geometry" />
        </mxCell>
        <mxCell id="7_QUcczijEH4QWhwg0ys-3" value="captura B2w arvore de categororias (API) " style="text;html=1;strokeColor=none;fillColor=none;align=center;verticalAlign=middle;whiteSpace=wrap;rounded=0;" vertex="1" parent="1">
          <mxGeometry x="290" y="60" width="270" height="20" as="geometry" />
        </mxCell>
        <mxCell id="7_QUcczijEH4QWhwg0ys-4" value="" style="shape=image;html=1;verticalAlign=top;verticalLabelPosition=bottom;labelBackgroundColor=#ffffff;imageAspect=0;aspect=fixed;image=https://cdn4.iconfinder.com/data/icons/logos-and-brands/512/267_Python_logo-128.png" vertex="1" parent="1">
          <mxGeometry x="340" y="120" width="43" height="43" as="geometry" />
        </mxCell>
        <mxCell id="7_QUcczijEH4QWhwg0ys-7" style="edgeStyle=orthogonalEdgeStyle;rounded=0;orthogonalLoop=1;jettySize=auto;html=1;entryX=0.008;entryY=0.438;entryDx=0;entryDy=0;entryPerimeter=0;" edge="1" parent="1" source="7_QUcczijEH4QWhwg0ys-5" target="7_QUcczijEH4QWhwg0ys-6">
          <mxGeometry relative="1" as="geometry" />
        </mxCell>
        <mxCell id="7_QUcczijEH4QWhwg0ys-5" value="&lt;span style=&quot;color: rgb(240 , 240 , 240) ; font-family: &amp;#34;opensans&amp;#34; , &amp;#34;helvetica&amp;#34; , &amp;#34;arial&amp;#34; , sans-serif ; font-size: 12px ; font-style: normal ; font-weight: 400 ; letter-spacing: normal ; text-align: left ; text-indent: 0px ; text-transform: none ; word-spacing: 0px ; background-color: rgb(40 , 40 , 40) ; display: inline ; float: none&quot;&gt;mystique-v2-americanas.juno.b2w.io&lt;/span&gt;" style="shape=image;html=1;verticalAlign=top;verticalLabelPosition=bottom;labelBackgroundColor=#ffffff;imageAspect=0;aspect=fixed;image=https://cdn4.iconfinder.com/data/icons/web-development-5/500/api-code-window-128.png" vertex="1" parent="1">
          <mxGeometry x="50" y="120" width="118" height="118" as="geometry" />
        </mxCell>
        <mxCell id="7_QUcczijEH4QWhwg0ys-10" style="edgeStyle=orthogonalEdgeStyle;rounded=0;orthogonalLoop=1;jettySize=auto;html=1;exitX=1;exitY=0.5;exitDx=0;exitDy=0;entryX=0;entryY=0.5;entryDx=0;entryDy=0;entryPerimeter=0;" edge="1" parent="1" source="7_QUcczijEH4QWhwg0ys-6" target="7_QUcczijEH4QWhwg0ys-9">
          <mxGeometry relative="1" as="geometry" />
        </mxCell>
        <mxCell id="7_QUcczijEH4QWhwg0ys-13" style="edgeStyle=orthogonalEdgeStyle;rounded=0;orthogonalLoop=1;jettySize=auto;html=1;exitX=1;exitY=0.75;exitDx=0;exitDy=0;entryX=0;entryY=0.5;entryDx=0;entryDy=0;entryPerimeter=0;" edge="1" parent="1" source="7_QUcczijEH4QWhwg0ys-6" target="7_QUcczijEH4QWhwg0ys-12">
          <mxGeometry relative="1" as="geometry" />
        </mxCell>
        <mxCell id="7_QUcczijEH4QWhwg0ys-6" value="Crw_category_b2w.py" style="shape=image;html=1;verticalAlign=top;verticalLabelPosition=bottom;labelBackgroundColor=#ffffff;imageAspect=0;aspect=fixed;image=https://cdn4.iconfinder.com/data/icons/file-types-outline-1/64/exe_aplication_software_deb_dll_rpm_dmg_pkg-128.png" vertex="1" parent="1">
          <mxGeometry x="259" y="120" width="120" height="120" as="geometry" />
        </mxCell>
        <mxCell id="7_QUcczijEH4QWhwg0ys-9" value="blob storage (json)" style="verticalLabelPosition=bottom;html=1;verticalAlign=top;align=center;strokeColor=none;fillColor=#00BEF2;shape=mxgraph.azure.storage_blob;" vertex="1" parent="1">
          <mxGeometry x="452.5" y="120" width="115" height="110" as="geometry" />
        </mxCell>
        <mxCell id="7_QUcczijEH4QWhwg0ys-11" value="" style="shape=image;html=1;verticalAlign=top;verticalLabelPosition=bottom;labelBackgroundColor=#ffffff;imageAspect=0;aspect=fixed;image=https://cdn0.iconfinder.com/data/icons/social-media-2127/48/social_media_social_media_logo_docker-128.png" vertex="1" parent="1">
          <mxGeometry x="290" y="280" width="70" height="70" as="geometry" />
        </mxCell>
        <mxCell id="7_QUcczijEH4QWhwg0ys-12" value="&lt;div&gt;PASS&lt;/div&gt;" style="verticalLabelPosition=bottom;html=1;verticalAlign=top;align=center;strokeColor=none;fillColor=#00BEF2;shape=mxgraph.azure.storage_table;" vertex="1" parent="1">
          <mxGeometry x="460" y="280" width="100" height="90" as="geometry" />
        </mxCell>
        <mxCell id="7_QUcczijEH4QWhwg0ys-25" value="&lt;table style=&quot;width: 100% ; height: 100% ; border-collapse: collapse ; border: 1px solid rgb(102 , 178 , 255)&quot; width=&quot;100%&quot; cellpadding=&quot;4&quot; border=&quot;1&quot;&gt;&lt;tbody&gt;&lt;tr style=&quot;background-color: rgb(167 , 201 , 66) ; color: rgb(255 , 255 , 255)&quot;&gt;&lt;th align=&quot;left&quot;&gt;s&lt;/th&gt;&lt;th align=&quot;left&quot;&gt;Title 2&lt;/th&gt;&lt;th align=&quot;left&quot;&gt;Title 3&lt;/th&gt;&lt;/tr&gt;&lt;tr&gt;&lt;td&gt;Value 1&lt;/td&gt;&lt;td&gt;Value 2&lt;/td&gt;&lt;td&gt;Value 3&lt;/td&gt;&lt;/tr&gt;&lt;tr style=&quot;background-color: rgb(234 , 242 , 211)&quot;&gt;&lt;td&gt;Value 4&lt;/td&gt;&lt;td&gt;Value 5&lt;/td&gt;&lt;td&gt;Value 6&lt;/td&gt;&lt;/tr&gt;&lt;tr&gt;&lt;td&gt;Value 7&lt;/td&gt;&lt;td&gt;Value 8&lt;/td&gt;&lt;td&gt;Value 9&lt;/td&gt;&lt;/tr&gt;&lt;tr style=&quot;background-color: rgb(234 , 242 , 211)&quot;&gt;&lt;td&gt;Value 10&lt;/td&gt;&lt;td&gt;Value 11&lt;/td&gt;&lt;td&gt;Value 12&lt;/td&gt;&lt;/tr&gt;&lt;/tbody&gt;&lt;/table&gt;" style="text;html=1;strokeColor=#6c8ebf;fillColor=#dae8fc;overflow=fill;rounded=0;" vertex="1" parent="1">
          <mxGeometry x="390" y="420" width="280" height="160" as="geometry" />
        </mxCell>
      </root>
    </mxGraphModel>
  </diagram>
</mxfile>
